<?xml version="1.0" encoding="UTF-8" standalone="no"?>
<!DOCTYPE svg PUBLIC "-//W3C//DTD SVG 1.1//EN" "http://www.w3.org/Graphics/SVG/1.1/DTD/svg11.dtd">
<svg version="1.1" xmlns="http://www.w3.org/2000/svg" xmlns:xlink="http://www.w3.org/1999/xlink" preserveAspectRatio="xMidYMid meet" viewBox="0 0 640 640" width="640" height="640"><defs><path d="M219.74 376.67C219.74 412.75 190.61 442.05 154.72 442.05C118.84 442.05 89.7 412.75 89.7 376.67C89.7 340.58 118.84 311.28 154.72 311.28C190.61 311.28 219.74 340.58 219.74 376.67Z" id="b4rGVIRiRM"></path><path d="M160.9 67.18L219.74 67.18L219.74 386.11L160.9 386.11L160.9 67.18Z" id="aaW5J4LZY"></path><path d="M432.44 376.67C432.44 412.75 403.3 442.05 367.41 442.05C331.53 442.05 302.39 412.75 302.39 376.67C302.39 340.58 331.53 311.28 367.41 311.28C403.3 311.28 432.44 340.58 432.44 376.67Z" id="a10LsBR2VW"></path><path d="M373.59 67.18L432.44 67.18L432.44 386.11L373.59 386.11L373.59 67.18Z" id="f610bvQ8Ed"></path><path d="M160.89 51.25L432.43 51.14L432.45 101.27L160.91 101.38L160.89 51.25Z" id="dljAJ1ADt"></path></defs><g><g><g><use xlink:href="#b4rGVIRiRM" opacity="1" fill="#000000" fill-opacity="1"></use></g><g><use xlink:href="#aaW5J4LZY" opacity="1" fill="#000000" fill-opacity="1"></use></g><g><use xlink:href="#a10LsBR2VW" opacity="1" fill="#000000" fill-opacity="1"></use></g><g><use xlink:href="#f610bvQ8Ed" opacity="1" fill="#000000" fill-opacity="1"></use></g><g><use xlink:href="#dljAJ1ADt" opacity="1" fill="#000000" fill-opacity="1"></use></g></g></g></svg>